# xmcd CD database file
#
# Track frame offsets:
#	150
#	19437
#	45250
#	75800
#	95787
#	117687
#	143862
#	161200
#	179175
#	197612
#	214875
#	236850
#
# Disc length: 3452 seconds
#
# Revision: 0
# Processed by: cddbd v1.4PL0 Copyright (c) Steve Scherf et al.
# Submitted via: CDex 1.50
#
DISCID=b10d7a0c
DTITLE=台灣原住民之歌 - melody of the aborigines on taiwan
DYEAR=1900
DGENRE=New Age
TTITLE0=飲酒歌
TTITLE1=懷念年祭
TTITLE2=小鬼湖之戀
TTITLE3=雅美情歌
TTITLE4=團結歌
TTITLE5=祭槍
TTITLE6=拉拉伊
TTITLE7=口琴之舞
TTITLE8=海洋之歌
TTITLE9=月光之舞
TTITLE10=卑南山
TTITLE11=歡樂聚會歌
EXTD=
EXTT0=
EXTT1=
EXTT2=
EXTT3=
EXTT4=
EXTT5=
EXTT6=
EXTT7=
EXTT8=
EXTT9=
EXTT10=
EXTT11=
PLAYORDER=
